<?xml version="1.0" encoding="utf-8"?>
<!-- Svg Vector Icons : http://www.onlinewebfonts.com/icon -->
<!DOCTYPE svg PUBLIC "-//W3C//DTD SVG 1.1//EN" "http://www.w3.org/Graphics/SVG/1.1/DTD/svg11.dtd">
<svg version="1.1" xmlns="http://www.w3.org/2000/svg" xmlns:xlink="http://www.w3.org/1999/xlink" x="0px" y="0px" viewBox="0 0 256 256" enable-background="new 0 0 256 256" xml:space="preserve">
<metadata> Svg Vector Icons : http://www.onlinewebfonts.com/icon </metadata>
<g><g><g><path fill="#000000" d="M202,62.9c-0.2,0.3-0.7,1.8-1.2,3.3c-0.4,1.5-1.3,4.3-2,6.2c-1.2,3.1-1.3,4.6-1.3,13.6c-0.1,7.4,0.2,11.7,1,16l1.1,5.9l-3,2.7c-1.6,1.6-3.9,4.2-5.1,5.9c-4.1,6-7.3,6.4-17.2,2.4c-4-1.6-7.3-2.5-10.7-2.9c-14.6-1.7-20.3-4.4-31.7-15.8c-6.6-6.5-9.6-8.3-18.2-11.1c-10.4-3.4-13.5-4-21.2-4L85.1,85l0.3-1.6c0.2-0.9,0.1-1.6-0.2-1.6S84.8,81,84.9,80c0.1-1,0-1.6-0.3-1.4c-0.3,0.2-0.8-0.2-1.1-0.7c-0.3-0.6-0.6-0.7-0.6-0.3c0,1.2-1.2,0.9-1.2-0.3c0-0.6-0.2-0.8-0.5-0.3c-0.2,0.3-1.2,0.6-2,0.5c-0.9-0.1-1.6,0.1-1.6,0.5c0,0.3-0.3,0.2-0.6-0.2c-0.5-0.7-0.6-0.7-0.6,0.3c0,1-0.1,1-0.6,0.3c-0.5-0.7-0.6-0.7-0.6,0.1c0,1.2-1.1,1.4-1.2,0.3c-0.1-0.3-0.2-0.1-0.4,0.6c-0.2,0.8-0.6,1.3-0.9,1.3c-0.6-0.1-2.7,2.3-2.7,3c0,0.2-0.4,0.5-0.9,0.5c-0.5,0-0.9,0.4-0.9,0.9c0,1.2-1.7,3-1.7,1.8c-0.1-1.6-1,1-1.7,4.4c-0.4,1.9-1.3,4.5-2,5.8c-0.7,1.3-2,3.9-2.7,5.7l-1.3,3.4l-1.3-2.2c-0.7-1.2-1.7-2.5-2.3-2.7c-1.8-1-5.1,1.4-11.3,8.5l-6.1,6.9l-7.7,3.8c-6.5,3.2-8.3,4.4-12.1,8.1c-2.4,2.4-5.2,4.8-6.1,5.4c-2.5,1.6-2.8,2.7-1.4,4.8c1.8,2.7,3.9,2.8,10.2,1c7.6-2.1,9.4-3.3,16.2-9.9c3.3-3.3,6.9-6.2,7.7-6.6c2.5-0.9,9.3-0.8,10.8,0.2c0.7,0.5,4,3.6,7.5,6.9c8.3,8.1,9.7,8.8,18.3,8.8c5.4,0,7.4-0.2,10.8-1.4l4.2-1.3l4.4,3.3c2.5,1.8,6.9,5.7,9.8,8.7c2.9,2.9,6.5,6.2,8,7.4c6.1,4.6,18.5,9.6,28.7,11.5c6.6,1.3,21.4,2.6,32.5,3c15.5,0.5,17.7,1.3,24,7.8c2.3,2.3,3.3,2.9,7.5,4.2c5.1,1.6,8.1,3.1,14.3,7.6c4.2,2.9,6.6,3.8,11.3,3.8c3.4,0,6.9-1.3,8.5-3.2c0.6-0.8,0.6-1.2-0.4-2.5c-0.6-0.9-2.3-2.4-3.6-3.3c-2.9-2.1-5.9-5-8.5-8.2c-2.2-2.8-8-6.8-11-7.6c-1.1-0.3-3.4-1.7-5.1-3c-3.5-2.7-3.5-3.1-1-6.9c0.7-1.1,1.6-3.7,2-5.8c1.2-7,1.2-7,3.1-7.8c1-0.4,4.3-0.9,7.3-1.2c9.1-0.6,15.6-3.4,15.6-6.5c0-2.9-8-20.7-11-24.5c-0.8-0.9-3.2-2.6-5.5-3.7c-2.3-1.1-4.3-2.4-4.5-2.8c-0.3-0.8,0.4-3.5,3.9-14.7c1.1-3.6,2.3-9,2.7-11.8c0.8-6.5,0.8-16.4,0.1-16.4c-1.2,0-4.4,5.4-10.6,18.1c-3.5,7.2-6.5,13-6.6,12.9c-0.5-0.5-3.2-10.9-5-19.4C204.7,63.9,203.4,60.6,202,62.9z"/></g></g></g>
</svg>