<?xml version="1.0" encoding="iso-8859-1"?>
<!-- Uploaded to: SVG Repo, www.svgrepo.com, Generator: SVG Repo Mixer Tools -->
<svg fill="#000000" height="800px" width="800px" version="1.1" id="Layer_1" xmlns="http://www.w3.org/2000/svg" xmlns:xlink="http://www.w3.org/1999/xlink" 
	 viewBox="0 0 512 512" xml:space="preserve">
<g>
	<g>
		<path d="M512,276.476c0-50.166-40.666-90.834-90.834-90.834h-7.807c-21.491-37.151-55.765-65.976-96.802-80.482V64.53
			c0-33.444-27.111-60.556-60.556-60.556c-33.445,0-60.556,27.112-60.556,60.556v40.63c-41.039,14.506-75.311,43.331-96.802,80.482
			h-7.809C40.666,185.642,0,226.31,0,276.476h74.333c0,43.858,15.542,84.085,41.416,115.474
			c-21.723,38.426-12.72,87.996,23.069,116.075l49.397-62.962c20.946,8.429,43.821,13.08,67.785,13.08
			c23.964,0,46.839-4.649,67.785-13.08l49.397,62.962c35.79-28.08,44.793-77.648,23.069-116.075
			c25.876-31.391,41.416-71.618,41.416-115.474H512z M256.001,140.224c21.741,0,42.306,5.128,60.561,14.225L285.728,196.9h-59.457
			l-30.831-42.451C213.695,145.353,234.26,140.224,256.001,140.224z M121.211,296.414c-0.957-6.511-1.461-13.166-1.461-19.938
			c0-37.06,14.88-70.707,38.972-95.296l30.79,42.394l-18.394,56.617L121.211,296.414z M233.283,410.821
			c-42.615-7.18-78.57-34.211-98.002-71.228l49.829-16.197l48.177,35.009L233.283,410.821z M215.825,289.573l15.353-47.256h49.648
			l15.352,47.256l-40.177,29.196L215.825,289.573z M278.702,410.826l0.003-52.413l48.195-35.023l49.827,16.19
			C357.294,376.606,321.329,403.644,278.702,410.826z M390.791,296.396l-49.913-16.218l-18.388-56.606l30.788-42.392
			c24.092,24.587,38.974,58.234,38.974,95.296C392.252,283.242,391.749,289.892,390.791,296.396z"/>
	</g>
</g>
</svg>